<?xml version="1.0" encoding="utf-8"?>
<!-- Generator: Adobe Illustrator 26.0.3, SVG Export Plug-In . SVG Version: 6.00 Build 0)  -->
<svg version="1.0" id="katman_1" xmlns="http://www.w3.org/2000/svg" xmlns:xlink="http://www.w3.org/1999/xlink" x="0px" y="0px"
	 viewBox="0 0 600 450" style="enable-background:new 0 0 600 450;" xml:space="preserve">
<style type="text/css">
	.st0{fill:#E74220;}
</style>
<path id="Flexy" class="st0" d="M364.9,135.9h-24c-2,0-3.7,1.7-3.7,3.7v45c0,2.4-2.8,3.7-4.7,2.2c-9.9-8.5-21.2-11.6-35-11.6c-9,0-17.7,2.1-25.7,5.7c-26,11.6-41.1,36.4-41.1,64.5c0,37.3,28.6,69.7,66.8,69.7c13.6,0,28.2-4.6,37.7-14.4c1.4-1.5,3.8-0.9,4.4,0.9v5.8c0,2,1.6,3.6,3.6,3.6H365c2,0,3.6-1.6,3.6-3.6V139.5C368.6,137.5,366.9,135.9,364.9,135.9zM299.9,283.2c-22.4,0-43.6-16.3-43.6-38.5c0-22.2,21.6-38,43.8-38c22.7,0,42.8,15.8,42.8,38C342.9,267.4,323,283.2,299.9,283.2L299.9,283.2z M145,175.1c-38.8,0-69.9,31.6-69.9,70.2c0,38.3,31.7,69.7,69.9,69.7c39.7,0,69.4-30.5,69.4-70.2C214.5,206.2,183.8,175.1,145,175.1L145,175.1z M145,283.2c-22.4,0-43.6-16.3-43.6-38.5s21.7-38,43.8-38c22.7,0,42.8,15.8,42.8,38C188.1,267.5,168.2,283.2,145,283.2L145,283.2z M521.6,179.8h-21.9c-2,0-3.6,1.6-3.6,3.6v5.8c-0.6,1.8-3,2.4-4.4,0.9c-9.5-9.9-24.1-14.4-37.7-14.4c-38.2,0-66.8,32.4-66.8,69.7s28.6,69.7,66.8,69.7c13.6,0,28.2-4.6,37.7-14.4c1.4-1.5,3.8-0.9,4.4,0.9v5.8c0,2,1.6,3.6,3.6,3.6h21.9c2,0,3.6-1.6,3.6-3.6V183.3C525.2,181.4,523.6,179.8,521.6,179.8L521.6,179.8z M456.4,283.2c-22.4,0-43.6-16.3-43.6-38.5c0-22.2,21.6-38,43.8-38c22.7,0,42.8,15.8,42.8,38C499.5,267.4,479.6,283.2,456.4,283.2L456.4,283.2z"/>
</svg>
